<svg width="141" height="177" viewBox="0 0 141 177" fill="none" xmlns="http://www.w3.org/2000/svg">
<mask id="mask0_52_78" style="mask-type:alpha" maskUnits="userSpaceOnUse" x="0" y="0" width="141" height="177">
<path d="M141 13.7702C84.443 -3.61709 56.5569 -3.61709 0 13.7702V91.7703C0 122.77 21.5 155.27 70.5 176.27C122.5 155.77 141 119.77 141 91.7703V13.7702Z" fill="black"/>
</mask>
<g mask="url(#mask0_52_78)">
<path d="M141 13.7702C84.443 -3.61709 56.5569 -3.61709 0 13.7702V91.7703C0 122.77 21.5 155.27 70.5 176.27C122.5 155.77 141 119.77 141 91.7703V13.7702Z" fill="black"/>
<path d="M25.156 61.0447L34.8205 84.0553L26.3675 86.8729L22.7463 88.08L25.8 90.3703L63.8 118.87L64.4161 119.332L65.1829 119.262C82.6878 117.654 96.3731 117.857 110.187 120.137C124.021 122.421 138.066 126.803 156.297 133.643L159.662 134.905L158.962 131.38L143.462 53.3805L142.717 49.6336L140.062 52.3802L116.137 77.1304L126.946 31.7335L127.954 27.4988L124.084 29.4923L109.603 36.9521L98.3796 6.08678L96.5383 1.02315L94.6297 6.06181L82.9446 36.9105L69.4617 29.5166L65.5583 27.3761L66.5503 31.7159L76.9517 77.222L52.938 52.3802L49.998 49.3389L49.5132 53.541L48.2825 64.2066L27.5439 58.3456L23.5481 57.2164L25.156 61.0447Z" fill="#E91C23" stroke="white" stroke-width="4"/>
<path d="M60.5 113.77C24.6419 128.868 2.83333 111.27 -2.5 103.77L-26.5 81.7703C-20.1667 100.937 3 139.77 45 141.77C87 143.77 102.833 156.937 105.5 163.27L137.5 139.27L139 110.27C125.5 102.77 98.5 97.7703 60.5 113.77Z" fill="white"/>
<path d="M66 132.77C92.4236 129.508 120 139.937 123 146.27C129.5 144.937 139.171 141.37 129.971 133.77C118.471 124.27 90.4712 119.27 56.471 126.77C29.2709 132.77 10.4999 121.77 4 115.27C6.5 125.27 25.5 137.77 66 132.77Z" fill="black"/>
</g>
</svg>
