<svg width="474" height="193" viewBox="0 0 474 193" fill="none" xmlns="http://www.w3.org/2000/svg">
<path d="M44.0625 102.23C35.8594 102.23 28.6328 100.551 22.3828 97.1914C16.1328 93.793 11.2695 88.9492 7.79297 82.6602C4.31641 76.3711 2.57812 68.832 2.57812 60.043V56.7031C2.57812 48.4609 4.21875 41.1758 7.5 34.8477C10.7812 28.4805 15.4492 23.5 21.5039 19.9062C27.5977 16.2734 34.8242 14.457 43.1836 14.457C49.043 14.457 54.5703 15.2578 59.7656 16.8594C65 18.4609 69.7461 21.0586 74.0039 24.6523V45.9219H60.2344L58.3594 33.1484C57.0312 32.25 55.625 31.4687 54.1406 30.8047C52.6562 30.1406 51.0547 29.6328 49.3359 29.2812C47.6172 28.9297 45.7617 28.7539 43.7695 28.7539C39.1602 28.7539 35.1758 29.8672 31.8164 32.0938C28.457 34.3203 25.8594 37.5039 24.0234 41.6445C22.1875 45.7852 21.2695 50.7656 21.2695 56.5859V60.043C21.2695 65.668 22.207 70.5898 24.082 74.8086C25.9961 78.9883 28.6914 82.2305 32.168 84.5352C35.6445 86.8398 39.6875 87.9922 44.2969 87.9922C46.7188 87.9922 49.1406 87.7383 51.5625 87.2305C53.9844 86.6836 56.25 85.9805 58.3594 85.1211L60.293 73.1094H74.0625V93.9688C70.7031 96.2344 66.4648 98.1875 61.3477 99.8281C56.2695 101.43 50.5078 102.23 44.0625 102.23ZM101.691 102.23C95.4406 102.23 90.4211 100.531 86.632 97.1328C82.882 93.6953 81.007 89.0664 81.007 83.2461C81.007 77.3086 83.4094 72.4648 88.2141 68.7148C93.0188 64.9258 100.167 63.0312 109.659 63.0312H117.218V58.8125C117.218 56 116.398 53.6758 114.757 51.8398C113.155 50.0039 110.695 49.0859 107.374 49.0859C105.773 49.0859 104.308 49.2812 102.98 49.6719C101.691 50.0625 100.499 50.6289 99.4055 51.3711L98.0578 59.5742H84.6984L84.4641 42.582C87.9016 40.8242 91.5734 39.3594 95.4797 38.1875C99.3859 37.0156 103.722 36.4297 108.488 36.4297C116.964 36.4297 123.663 38.3828 128.585 42.2891C133.507 46.1953 135.968 51.7617 135.968 58.9883V83.832C135.968 84.7305 135.968 85.6094 135.968 86.4688C136.007 87.2891 136.105 88.0898 136.261 88.8711L142.941 89.9258V101H120.441C119.972 100.102 119.484 99.0469 118.976 97.8359C118.468 96.625 118.116 95.4141 117.921 94.2031C115.929 96.6641 113.644 98.6172 111.066 100.062C108.488 101.508 105.363 102.23 101.691 102.23ZM107.081 88.6953C109.034 88.6953 110.929 88.2656 112.765 87.4062C114.601 86.5469 116.085 85.375 117.218 83.8906V74.2812H109.777C106.495 74.2812 103.976 75.0234 102.218 76.5078C100.499 77.9922 99.6398 79.8281 99.6398 82.0156C99.6398 84.125 100.304 85.7656 101.632 86.9375C102.999 88.1094 104.816 88.6953 107.081 88.6953ZM148.713 101V89.9258L156.506 88.1094V50.5508L147.6 48.7344V37.6016H174.084L174.67 45.3945L174.788 46.918C176.272 43.3633 178.108 40.7266 180.295 39.0078C182.483 37.2891 185.178 36.4297 188.381 36.4297C189.319 36.4297 190.373 36.5078 191.545 36.6641C192.756 36.8203 193.889 37.0547 194.944 37.3672L193.01 54.5938L184.397 54.1836C182.131 54.0664 180.334 54.3789 179.006 55.1211C177.678 55.8633 176.428 56.9961 175.256 58.5195V88.1094L183.108 89.9258V101H148.713ZM193.744 101V89.9258L201.654 88.1094V22.543L192.572 20.7266V9.59375H220.404V88.1094L228.255 89.9258V101H193.744ZM261.509 102.23C255.376 102.23 250.024 100.902 245.454 98.2461C240.884 95.5508 237.329 91.8789 234.79 87.2305C232.29 82.543 231.04 77.2305 231.04 71.293V69.0078C231.04 62.6797 232.192 57.0742 234.497 52.1914C236.802 47.2695 240.122 43.4219 244.458 40.6484C248.794 37.8359 253.989 36.4297 260.044 36.4297C265.786 36.4297 270.63 37.543 274.575 39.7695C278.52 41.9961 281.509 45.2578 283.54 49.5547C285.61 53.8125 286.645 59.0078 286.645 65.1406V75.1016H250.493L250.434 75.4531C250.669 77.875 251.333 80.0234 252.427 81.8984C253.559 83.7344 255.102 85.1992 257.055 86.293C259.048 87.3867 261.47 87.9336 264.321 87.9336C267.251 87.9336 270.024 87.582 272.641 86.8789C275.298 86.1758 277.973 85.082 280.669 83.5977L285.356 95.0234C282.622 97.0938 279.223 98.8125 275.161 100.18C271.137 101.547 266.587 102.23 261.509 102.23ZM250.552 63.0898H269.302V61.5664C269.302 59.1445 269.009 57.0938 268.423 55.4141C267.876 53.6953 266.938 52.3867 265.61 51.4883C264.321 50.5898 262.602 50.1406 260.454 50.1406C258.266 50.1406 256.47 50.6875 255.063 51.7812C253.657 52.875 252.583 54.3789 251.841 56.293C251.137 58.207 250.649 60.375 250.376 62.7969L250.552 63.0898ZM318.727 102.289C312.477 102.289 307.691 100.609 304.371 97.25C301.051 93.8516 299.391 88.4805 299.391 81.1367V50.668H291.07V37.6016H299.391V22.0156H318.023V37.6016H329.098V50.668H318.023V81.0781C318.023 83.3438 318.512 84.9648 319.488 85.9414C320.504 86.8789 321.871 87.3477 323.59 87.3477C324.449 87.3477 325.328 87.2891 326.227 87.1719C327.125 87.0547 327.945 86.9375 328.688 86.8203L330.094 100.59C328.336 101.098 326.48 101.508 324.527 101.82C322.613 102.133 320.68 102.289 318.727 102.289ZM364.167 102.23C357.761 102.23 352.273 100.883 347.702 98.1875C343.171 95.4531 339.695 91.6641 337.273 86.8203C334.89 81.9375 333.698 76.293 333.698 69.8867V68.7148C333.698 62.3867 334.89 56.8008 337.273 51.957C339.695 47.1133 343.171 43.3242 347.702 40.5898C352.234 37.8164 357.683 36.4297 364.05 36.4297C370.417 36.4297 375.866 37.7969 380.398 40.5312C384.929 43.2656 388.386 47.0547 390.769 51.8984C393.191 56.7422 394.402 62.3477 394.402 68.7148V69.8867C394.402 76.2539 393.191 81.8789 390.769 86.7617C388.386 91.6055 384.929 95.3945 380.398 98.1289C375.905 100.863 370.495 102.23 364.167 102.23ZM364.167 87.9336C366.902 87.9336 369.109 87.1914 370.788 85.707C372.507 84.2227 373.757 82.1328 374.538 79.4375C375.359 76.7422 375.769 73.5586 375.769 69.8867V68.7148C375.769 65.1602 375.359 62.0547 374.538 59.3984C373.757 56.7031 372.507 54.5938 370.788 53.0703C369.07 51.5469 366.823 50.7852 364.05 50.7852C361.316 50.7852 359.089 51.5469 357.37 53.0703C355.652 54.5938 354.402 56.7031 353.62 59.3984C352.839 62.0547 352.448 65.1602 352.448 68.7148V69.8867C352.448 73.5586 352.839 76.7617 353.62 79.4961C354.402 82.1914 355.652 84.2812 357.37 85.7656C359.089 87.2109 361.355 87.9336 364.167 87.9336ZM399.588 101V89.9258L407.44 88.1094V50.5508L398.475 48.7344V37.6016H425.018L425.78 46.5664C427.889 43.3633 430.487 40.8828 433.573 39.125C436.659 37.3281 440.174 36.4297 444.12 36.4297C450.213 36.4297 455.018 38.4414 458.534 42.4648C462.049 46.4883 463.807 52.8359 463.807 61.5078V88.1094L471.6 89.9258V101H438.26V89.9258L444.998 88.1094V61.5078C444.998 57.6797 444.217 54.9648 442.655 53.3633C441.131 51.7227 438.905 50.9023 435.975 50.9023C433.788 50.9023 431.873 51.3516 430.233 52.25C428.631 53.1094 427.284 54.3594 426.19 56V88.1094L432.284 89.9258V101H399.588Z" fill="black"/>
<path d="M166.633 174.697C162.892 174.697 159.594 174.044 156.738 172.738C153.905 171.41 151.691 169.495 150.098 166.994C148.504 164.471 147.707 161.427 147.707 157.863V132.131L142.527 131.135V125.656H161.951V131.135L156.738 132.131V157.863C156.738 160.055 157.137 161.881 157.934 163.342C158.753 164.803 159.904 165.898 161.387 166.629C162.87 167.359 164.618 167.725 166.633 167.725C168.691 167.725 170.473 167.37 171.979 166.662C173.484 165.932 174.635 164.836 175.432 163.375C176.251 161.914 176.66 160.077 176.66 157.863V132.131L171.447 131.135V125.656H190.904V131.135L185.691 132.131V157.863C185.691 161.449 184.895 164.504 183.301 167.027C181.707 169.529 179.482 171.432 176.627 172.738C173.771 174.044 170.44 174.697 166.633 174.697ZM192.898 174V168.555L197.712 167.559V144.549L192.533 143.553V138.074H206.079L206.511 143.254C207.706 141.417 209.189 139.989 210.96 138.971C212.753 137.93 214.779 137.41 217.036 137.41C220.645 137.41 223.467 138.55 225.503 140.83C227.562 143.088 228.591 146.641 228.591 151.488V167.559L233.406 168.555V174H215.111V168.555L219.527 167.559V151.555C219.527 148.987 219.018 147.172 217.999 146.109C216.981 145.025 215.465 144.482 213.451 144.482C211.945 144.482 210.628 144.814 209.499 145.479C208.393 146.12 207.474 147.039 206.744 148.234V167.559L210.994 168.555V174H192.898ZM235.266 174V168.555L240.081 167.559V144.549L234.868 143.553V138.074H249.112V167.559L253.926 168.555V174H235.266ZM239.749 130.205V122.203H249.112V130.205H239.749ZM269.799 174L258.543 144.15L254.691 143.553V138.074H271.625V143.553L267.674 144.217L273.617 161.383L274.447 164.205H274.647L275.609 161.383L281.852 144.217L277.369 143.553V138.074H294.27V143.553L290.318 144.217L278.797 174H269.799ZM312.134 174.697C308.725 174.697 305.748 173.945 303.203 172.439C300.679 170.912 298.72 168.82 297.326 166.164C295.931 163.486 295.234 160.431 295.234 157V155.639C295.234 152.119 295.898 148.987 297.226 146.242C298.576 143.497 300.458 141.339 302.871 139.768C305.283 138.196 308.072 137.41 311.238 137.41C314.492 137.41 317.225 138.063 319.439 139.369C321.652 140.653 323.324 142.501 324.453 144.914C325.581 147.327 326.146 150.227 326.146 153.613V158.627H304.597L304.531 158.826C304.619 160.553 305.007 162.091 305.693 163.441C306.379 164.77 307.342 165.821 308.581 166.596C309.821 167.37 311.326 167.758 313.097 167.758C314.979 167.758 316.694 167.514 318.244 167.027C319.815 166.54 321.309 165.821 322.726 164.869L325.316 170.48C323.877 171.676 322.051 172.683 319.837 173.502C317.624 174.299 315.056 174.697 312.134 174.697ZM304.697 152.484H317.646V151.621C317.646 150.116 317.425 148.81 316.982 147.703C316.539 146.574 315.853 145.7 314.923 145.08C314.016 144.46 312.831 144.15 311.371 144.15C310.042 144.15 308.902 144.516 307.951 145.246C306.999 145.954 306.246 146.928 305.693 148.168C305.139 149.385 304.774 150.769 304.597 152.318L304.697 152.484ZM329.966 174V168.555L334.78 167.559V144.549L329.6 143.553V138.074H343.147L343.546 142.557L343.612 143.32C344.52 141.395 345.649 139.934 346.999 138.938C348.349 137.919 349.943 137.41 351.78 137.41C352.378 137.41 353.02 137.465 353.706 137.576C354.414 137.665 355.012 137.786 355.499 137.941L354.47 146.275L349.721 146.01C348.283 145.943 347.098 146.209 346.169 146.807C345.261 147.404 344.475 148.257 343.811 149.363V167.559L348.626 168.555V174H329.966ZM372.5 174.697C369.866 174.697 367.409 174.454 365.129 173.967C362.871 173.458 360.658 172.716 358.488 171.742L358.389 161.914H364.764L366.026 167.094C366.889 167.492 367.796 167.802 368.748 168.023C369.7 168.245 370.774 168.355 371.969 168.355C374.249 168.355 375.854 167.979 376.783 167.227C377.735 166.452 378.211 165.489 378.211 164.338C378.211 163.231 377.713 162.279 376.717 161.482C375.721 160.663 373.795 159.955 370.94 159.357C366.667 158.45 363.524 157.089 361.51 155.273C359.496 153.436 358.488 151.09 358.488 148.234C358.488 146.242 358.998 144.438 360.016 142.822C361.056 141.206 362.606 139.911 364.664 138.938C366.723 137.941 369.302 137.443 372.401 137.443C375.123 137.443 377.569 137.72 379.738 138.273C381.93 138.827 383.778 139.535 385.283 140.398L385.449 149.895H379.108L378.078 145.18C377.436 144.715 376.684 144.361 375.82 144.117C374.957 143.852 373.983 143.719 372.899 143.719C371.128 143.719 369.744 144.095 368.748 144.848C367.774 145.6 367.287 146.552 367.287 147.703C367.287 148.367 367.453 148.976 367.785 149.529C368.117 150.083 368.759 150.603 369.711 151.09C370.685 151.555 372.102 151.997 373.961 152.418C378.521 153.458 381.808 154.842 383.822 156.568C385.859 158.295 386.877 160.641 386.877 163.607C386.877 166.883 385.682 169.551 383.291 171.609C380.923 173.668 377.326 174.697 372.5 174.697ZM389.9 174V168.555L394.714 167.559V144.549L389.501 143.553V138.074H403.746V167.559L408.56 168.555V174H389.9ZM394.382 130.205V122.203H403.746V130.205H394.382ZM424.532 174.664C421.345 174.664 418.865 173.779 417.095 172.008C415.346 170.215 414.472 167.382 414.472 163.508V144.482H409.391V138.074H414.472V129.309H423.47V138.074H430.343V144.482H423.47V163.508C423.47 164.969 423.78 166.02 424.399 166.662C425.019 167.304 425.849 167.625 426.89 167.625C427.465 167.625 428.096 167.581 428.782 167.492C429.468 167.404 430.044 167.315 430.509 167.227L431.372 173.635C430.376 173.923 429.269 174.166 428.052 174.365C426.856 174.564 425.683 174.664 424.532 174.664ZM443.227 188.51C442.474 188.51 441.633 188.432 440.703 188.277C439.796 188.145 438.966 187.979 438.213 187.779L439.242 181.072C439.641 181.139 440.106 181.194 440.637 181.238C441.19 181.283 441.633 181.305 441.965 181.305C443.382 181.305 444.577 180.906 445.551 180.109C446.525 179.312 447.278 178.184 447.809 176.723L448.772 174.166L436.619 144.184L432.303 143.553V138.074H450.565V143.553L446.149 144.217L452.092 160.52L452.989 163.076H453.188L460.227 144.184L455.844 143.553V138.074H472.977V143.553L469.026 144.117L455.213 179.379C454.549 181.061 453.708 182.589 452.69 183.961C451.694 185.355 450.421 186.462 448.871 187.281C447.344 188.1 445.462 188.51 443.227 188.51Z" fill="black"/>
</svg>
